<svg width="138" height="58" viewBox="0 0 138 58" fill="none" xmlns="http://www.w3.org/2000/svg">
<path d="M0.00537425 9.08295C0.00537425 3.04848 4.0915 0.03125 12.2637 0.03125C20.4557 0.03125 24.5519 3.04848 24.5523 9.08295V14.8826H16.0075V9.08295C16.0075 7.1495 14.7694 6.1755 12.2933 6.16095H12.2328C9.77684 6.16095 8.54908 7.13495 8.54953 9.08295V12.9937C8.54953 14.9131 11.2156 17.2638 16.5479 20.046C21.8802 22.8141 24.5463 26.1328 24.5463 30.0019V35.4504C24.5463 41.4999 20.4602 44.5246 12.2879 44.5246C4.09508 44.5096 -0.00089603 41.4849 1.47027e-07 35.4504V29.6501H8.54414V35.4484C8.54414 37.3968 9.79207 38.3708 12.2879 38.3704C14.7641 38.3704 16.0021 37.3964 16.0021 35.4484V30.527C16.0021 28.4476 13.336 26.0155 8.00375 23.2306C2.6715 20.462 0.00537425 17.0931 0.00537425 13.124V9.08295Z" fill="#1A987C"/>
<path d="M111.205 0V23.3091C111.205 25.1871 109.966 26.8871 107.963 28.118C106.746 28.844 105.424 29.3695 104.046 29.6747V44.5759H96.2266V29.6761C92.044 28.7044 89.0664 26.2216 89.0664 23.3105V0H97.0372V23.2661C97.0372 24.3177 98.4232 25.17 100.136 25.17C101.848 25.17 103.236 24.3177 103.236 23.2661V0H111.205Z" fill="#1A987C"/>
<path d="M126.683 0C120.728 0 115.902 2.72765 115.902 6.09629V44.5759H123.662V29.6693C124.661 29.8329 125.671 29.9146 126.683 29.9134C129.33 29.9684 131.949 29.3552 134.304 28.1289C136.253 27.0262 137.463 25.5014 137.463 23.8178V6.09629C137.46 2.72833 132.635 0 126.683 0ZM129.701 19.0356C129.701 19.0458 129.697 19.0533 129.697 19.0635C129.697 19.0737 129.701 19.0813 129.701 19.0908V24.0524C129.701 24.9941 128.348 25.7572 126.683 25.7572C125.941 25.7732 125.208 25.6014 124.548 25.2573C124.308 25.155 124.099 24.9892 123.943 24.7772C123.787 24.5652 123.69 24.3146 123.662 24.0517V5.96059C123.662 5.01887 125.015 4.25581 126.683 4.25581C127.423 4.24012 128.156 4.41191 128.815 4.75565C129.055 4.85796 129.264 5.02375 129.42 5.23579C129.576 5.44782 129.673 5.69834 129.701 5.96127V19.0356Z" fill="#1A987C"/>
<path d="M54.6885 0V6.05197H45.5932V44.5738H37.775V6.05197H28.6797V0H54.6885Z" fill="#1A987C"/>
<path d="M84.3306 8.65848C84.0376 3.85373 78.5939 0.0234375 71.9183 0.0234375C65.2427 0.0234375 59.7984 3.85373 59.506 8.65848H59.4919V14.9709L56.0352 13.4898C56.041 15.7174 56.0468 17.945 56.0526 20.1726L59.4919 21.6175V35.3587C59.4919 40.353 65.0552 44.4009 71.9183 44.4009C78.7808 44.4009 84.3447 40.353 84.3447 35.3587V29.4827H75.3979V35.6485C75.3979 37.0465 73.8399 38.1805 71.9183 38.1805C69.9967 38.1805 68.4394 37.0471 68.4394 35.6485V28.3453C68.4394 28.3316 68.4394 28.3187 68.4394 28.305C68.4394 28.2914 68.4394 28.2853 68.4394 28.2757C68.4394 28.2662 68.4394 28.2559 68.4394 28.2457C68.4394 28.2355 68.4394 28.2191 68.4394 28.2055V25.7083C69.5837 25.9499 70.7495 26.0712 71.9183 26.0704C77.6106 26.0704 82.4036 23.2848 83.8756 19.4852H83.889V19.4484C84.1865 18.6773 84.3404 17.857 84.3427 17.0289V8.65848H84.3306ZM71.9183 19.91C71.4311 19.9112 70.9468 19.8341 70.4833 19.6816L69.7359 19.3611L68.4387 18.7474V10.0189C68.4387 10.0053 68.4387 9.9923 68.4387 9.97866C68.4387 9.96503 68.4387 9.95207 68.4387 9.93843V8.87192C68.4387 7.47332 69.9967 6.33998 71.9177 6.33998C73.8393 6.33998 75.3973 7.47332 75.3973 8.87192V9.93843C75.3973 9.95207 75.3973 9.96503 75.3973 9.97866C75.3973 9.9923 75.3973 10.0053 75.3973 10.0189V17.3835C75.398 18.7746 73.8399 19.9087 71.9183 19.9087V19.91Z" fill="url(#paint0_linear_5436_69608)"/>
<path d="M31.4771 54.7919L30.8084 52.9051H28.2475L27.5922 54.7919H26.4375L28.9432 47.9688H30.1342L32.6399 54.7919H31.4771ZM30.52 51.947L29.8923 50.097C29.8475 49.9733 29.784 49.7781 29.702 49.5112C29.62 49.2444 29.5642 49.0492 29.5347 48.9255C29.4399 49.3494 29.3192 49.7668 29.1731 50.1754L28.5681 51.9484L30.52 51.947Z" fill="#4D4D4D"/>
<path d="M37.8696 54.7943H36.7888V51.6336C36.812 51.3195 36.7287 51.0068 36.5529 50.7472C36.4583 50.6438 36.3417 50.5636 36.212 50.5129C36.0822 50.4622 35.9427 50.4423 35.8042 50.4547C35.6177 50.4385 35.4301 50.467 35.2566 50.5381C35.083 50.6092 34.9285 50.7208 34.8054 50.8638C34.5588 51.2751 34.4481 51.7556 34.4895 52.2351V54.7957H33.4141V49.6554H34.2569L34.4081 50.3292H34.4632C34.6211 50.08 34.8472 49.8831 35.1139 49.7626C35.4069 49.6267 35.726 49.5584 36.0482 49.5627C37.2638 49.5627 37.8717 50.1901 37.8717 51.4448L37.8696 54.7943Z" fill="#4D4D4D"/>
<path d="M41.7434 48.29C41.7382 48.2079 41.7495 48.1256 41.7766 48.0481C41.8038 47.9706 41.8462 47.8995 41.9014 47.8393C41.9624 47.7838 42.0337 47.7411 42.1112 47.714C42.1886 47.6868 42.2706 47.6756 42.3524 47.681C42.4328 47.6762 42.5133 47.6877 42.5893 47.7149C42.6652 47.7421 42.735 47.7843 42.7947 47.8393C42.8499 47.8995 42.8923 47.9705 42.9195 48.048C42.9466 48.1255 42.9579 48.2079 42.9526 48.29C42.957 48.3702 42.9452 48.4505 42.9181 48.526C42.8909 48.6015 42.8489 48.6706 42.7947 48.7291C42.7354 48.7847 42.6657 48.8277 42.5897 48.8552C42.5137 48.8828 42.433 48.8943 42.3524 48.8893C42.2705 48.8948 42.1883 48.8834 42.1108 48.8559C42.0333 48.8283 41.9621 48.7852 41.9014 48.7291C41.8471 48.6706 41.8051 48.6015 41.778 48.526C41.7508 48.4505 41.7391 48.3702 41.7434 48.29ZM42.8861 54.792H41.8106V49.6517H42.8861V54.792Z" fill="#4D4D4D"/>
<path d="M48.882 54.7943H47.8006V51.6337C47.8237 51.3195 47.7405 51.0068 47.5646 50.7472C47.4701 50.6437 47.3535 50.5635 47.2237 50.5128C47.0939 50.4621 46.9544 50.4423 46.8159 50.4547C46.6294 50.4385 46.4418 50.467 46.2683 50.5381C46.0947 50.6092 45.9402 50.7208 45.8171 50.8638C45.5704 51.2751 45.4598 51.7556 45.5012 52.2352V54.7957H44.4258V49.6554H45.2686L45.4199 50.3292H45.475C45.6328 50.08 45.859 49.8831 46.1256 49.7626C46.4189 49.6266 46.7382 49.5583 47.0605 49.5627C48.2762 49.5627 48.884 50.1901 48.884 51.4448L48.882 54.7943Z" fill="#4D4D4D"/>
<path d="M50.3138 48.29C50.3085 48.2079 50.3198 48.1256 50.3469 48.0481C50.3741 47.9706 50.4165 47.8996 50.4717 47.8393C50.5328 47.7837 50.6043 47.7411 50.6818 47.7139C50.7594 47.6867 50.8415 47.6756 50.9234 47.681C51.0036 47.6763 51.084 47.6878 51.1599 47.715C51.2357 47.7422 51.3054 47.7845 51.365 47.8393C51.4202 47.8995 51.4626 47.9705 51.4898 48.048C51.5169 48.1256 51.5282 48.2079 51.5229 48.29C51.5273 48.3703 51.5155 48.4505 51.4884 48.526C51.4612 48.6015 51.4193 48.6706 51.365 48.7291C51.3058 48.7847 51.2362 48.8275 51.1603 48.8551C51.0844 48.8826 51.0038 48.8942 50.9234 48.8894C50.8413 48.8949 50.759 48.8836 50.6814 48.8561C50.6038 48.8285 50.5325 48.7853 50.4717 48.7291C50.4175 48.6706 50.3755 48.6015 50.3483 48.526C50.3212 48.4505 50.3094 48.3703 50.3138 48.29ZM51.4564 54.792H50.381V49.6518H51.4564V54.792Z" fill="#4D4D4D"/>
<path d="M54.8812 54.002C55.1485 54.0012 55.4142 53.959 55.6689 53.8765V54.6989C55.5207 54.7602 55.3663 54.8045 55.2085 54.8311C55.0159 54.8674 54.8203 54.8855 54.6244 54.8851C53.6041 54.8851 53.094 54.3395 53.094 53.2485V50.4785H52.4023V49.9951L53.1417 49.5954L53.508 48.5078H54.1721V49.6507H55.6151V50.4785H54.1721V53.2301C54.1633 53.3357 54.1762 53.4421 54.2097 53.5425C54.2432 53.6429 54.2967 53.7353 54.367 53.8138C54.4361 53.8781 54.5172 53.9279 54.6055 53.9602C54.6937 53.9925 54.7874 54.0067 54.8812 54.002Z" fill="#4D4D4D"/>
<path d="M56.6145 48.29C56.6093 48.2079 56.6206 48.1256 56.6477 48.0481C56.6749 47.9706 56.7173 47.8995 56.7725 47.8392C56.8335 47.7838 56.9048 47.7412 56.9823 47.714C57.0597 47.6869 57.1417 47.6756 57.2235 47.681C57.3039 47.6762 57.3844 47.6877 57.4603 47.7149C57.5363 47.742 57.6061 47.7843 57.6657 47.8392C57.7209 47.8995 57.7634 47.9705 57.7906 48.048C57.8177 48.1255 57.829 48.2079 57.8237 48.29C57.8281 48.3702 57.8164 48.4505 57.7892 48.526C57.7621 48.6015 57.72 48.6706 57.6657 48.7291C57.6065 48.7847 57.5368 48.8276 57.4608 48.8552C57.3848 48.8827 57.3041 48.8943 57.2235 48.8893C57.1416 48.8948 57.0594 48.8834 56.9819 48.8559C56.9044 48.8283 56.8332 48.7852 56.7725 48.7291C56.7182 48.6705 56.6762 48.6015 56.6491 48.526C56.6219 48.4505 56.6102 48.3702 56.6145 48.29ZM57.7572 54.792H56.6817V49.6517H57.7572V54.792Z" fill="#4D4D4D"/>
<path d="M62.4589 54.7878L62.2438 54.0718H62.2068C62.0137 54.3412 61.7603 54.5602 61.4675 54.7108C61.165 54.8343 60.8403 54.8922 60.5144 54.8806C60.0876 54.9064 59.6681 54.7592 59.3482 54.4714C59.2028 54.3183 59.0904 54.1362 59.0182 53.9366C58.946 53.737 58.9155 53.5244 58.9288 53.3122C58.9157 53.0783 58.9624 52.8449 59.0644 52.6348C59.1664 52.4246 59.3202 52.2448 59.5109 52.1127C60.0504 51.8022 60.6641 51.6495 61.284 51.6715L62.1577 51.6435V51.3707C62.1782 51.1049 62.0971 50.8412 61.9313 50.6343C61.837 50.5464 61.7258 50.4793 61.6046 50.4373C61.4835 50.3953 61.3551 50.3792 61.2275 50.3902C60.9741 50.3892 60.7222 50.4286 60.4808 50.5068C60.2459 50.5823 60.0162 50.6735 59.7932 50.7796L59.445 49.9988C59.7306 49.8492 60.034 49.7376 60.3477 49.6666C60.651 49.5936 60.9615 49.5554 61.2732 49.5528C61.7943 49.5142 62.3118 49.6659 62.7324 49.9804C62.9073 50.1532 63.0423 50.3633 63.1275 50.5955C63.2127 50.8277 63.246 51.0762 63.2251 51.323V54.7858L62.4589 54.7878ZM60.8552 54.0439C61.1993 54.0606 61.5365 53.9416 61.7961 53.7117C61.9176 53.5912 62.0121 53.4456 62.0733 53.2848C62.1345 53.124 62.161 52.9517 62.151 52.7796V52.3336L61.5004 52.3616C61.1159 52.3491 60.7347 52.438 60.3941 52.6194C60.2802 52.6954 60.1883 52.8006 60.1275 52.9243C60.0667 53.048 60.0393 53.1858 60.0479 53.3238C60.042 53.422 60.0568 53.5204 60.0916 53.6123C60.1264 53.7042 60.1803 53.7874 60.2496 53.8563C60.4219 53.9921 60.6384 54.0569 60.8558 54.0377L60.8552 54.0439Z" fill="#4D4D4D"/>
<path d="M66.6259 54.002C66.8934 54.0013 67.1594 53.959 67.4143 53.8765V54.6989C67.2662 54.7601 67.1117 54.8045 66.9539 54.8311C66.7612 54.8673 66.5657 54.8855 66.3698 54.8851C65.3495 54.8851 64.8396 54.3395 64.84 53.2485V50.4785H64.1484V49.9951L64.8878 49.5954L65.2541 48.5078H65.9188V49.6507H67.3619V50.4785H65.9188V53.2301C65.91 53.3357 65.9228 53.4421 65.9564 53.5425C65.9899 53.6429 66.0435 53.7353 66.1137 53.8138C66.1826 53.8778 66.2634 53.9275 66.3513 53.9598C66.4392 53.9921 66.5325 54.0064 66.6259 54.002Z" fill="#4D4D4D"/>
<path d="M68.3645 48.29C68.3593 48.2079 68.3706 48.1256 68.3978 48.0481C68.4249 47.9706 68.4673 47.8995 68.5225 47.8392C68.5835 47.7838 68.6548 47.7412 68.7323 47.714C68.8097 47.6869 68.8917 47.6756 68.9735 47.681C69.0539 47.6762 69.1344 47.6877 69.2104 47.7149C69.2863 47.742 69.3562 47.7843 69.4158 47.8392C69.4709 47.8996 69.5133 47.9706 69.5404 48.0481C69.5676 48.1256 69.5789 48.2079 69.5738 48.29C69.578 48.3702 69.5662 48.4505 69.539 48.526C69.5119 48.6015 69.47 48.6705 69.4158 48.7291C69.3566 48.7847 69.2868 48.8276 69.2108 48.8551C69.1348 48.8826 69.0541 48.8943 68.9735 48.8893C68.8916 48.8947 68.8094 48.8833 68.7319 48.8558C68.6545 48.8282 68.5832 48.7852 68.5225 48.7291C68.4682 48.6705 68.4263 48.6015 68.3992 48.526C68.372 48.4505 68.3602 48.3702 68.3645 48.29ZM69.5072 54.792H68.4318V49.6517H69.5072V54.792Z" fill="#4D4D4D"/>
<path d="M72.1899 54.7893L70.2656 49.6484H71.4015L72.4326 52.6372C72.5818 53.0305 72.6892 53.4388 72.7531 53.8551H72.7895C72.8654 53.4414 72.9725 53.0342 73.11 52.6372L74.1411 49.6484H75.2837L73.3507 54.7893H72.1899Z" fill="#4D4D4D"/>
<path d="M78.2698 54.8897C77.9307 54.9094 77.5913 54.8573 77.2731 54.7369C76.9549 54.6164 76.6649 54.4302 76.4214 54.1901C76.1905 53.9295 76.0127 53.6251 75.8983 53.2945C75.7838 52.9639 75.735 52.6135 75.7547 52.2636C75.7145 51.5498 75.9345 50.8459 76.373 50.2861C76.5852 50.045 76.848 49.8551 77.142 49.7303C77.436 49.6056 77.7539 49.5493 78.0722 49.5654C78.3643 49.55 78.6563 49.5969 78.9293 49.7034C79.2024 49.8098 79.4502 49.9733 79.657 50.1832C80.0649 50.6501 80.2742 51.2617 80.2391 51.8845V52.4751H76.8623C76.8491 52.8955 76.9913 53.3058 77.2609 53.6254C77.3997 53.7641 77.5656 53.8716 77.748 53.9409C77.9304 54.0102 78.1251 54.0398 78.3195 54.0278C78.6004 54.0298 78.8808 54.001 79.1556 53.9418C79.4415 53.8752 79.7201 53.7794 79.9871 53.6561V54.5426C79.7338 54.6674 79.466 54.7591 79.1899 54.8154C78.8862 54.8696 78.5781 54.8945 78.2698 54.8897ZM78.0728 50.3891C77.9206 50.3823 77.7687 50.4082 77.6271 50.465C77.4854 50.5219 77.3572 50.6084 77.2508 50.7191C77.0249 50.9887 76.8951 51.3276 76.8825 51.6813H79.1819C79.2011 51.3329 79.0934 50.9895 78.8794 50.7164C78.7761 50.606 78.6505 50.5196 78.5111 50.4634C78.3718 50.4071 78.222 50.3822 78.0722 50.3904L78.0728 50.3891Z" fill="#4D4D4D"/>
<path d="M86.4486 50.4754H85.2111V54.7884H84.1303V50.4754H83.2969V49.964L84.1303 49.6292V49.2949C84.0909 48.8062 84.2422 48.3214 84.5518 47.9448C84.7258 47.7869 84.9296 47.6667 85.1509 47.5912C85.3722 47.5157 85.6063 47.4866 85.839 47.5057C86.2193 47.506 86.597 47.5702 86.9567 47.6959L86.6724 48.5237C86.427 48.4403 86.1702 48.3964 85.9115 48.3935C85.8108 48.3848 85.7095 48.4011 85.6165 48.4411C85.5235 48.4812 85.4416 48.5437 85.3778 48.6233C85.2522 48.8299 85.1937 49.0713 85.2105 49.3134V49.6482H86.4478L86.4486 50.4754Z" fill="#4D4D4D"/>
<path d="M89.8821 49.5629C90.0624 49.5596 90.2426 49.5751 90.4198 49.6093L90.3143 50.6274C90.1582 50.5898 89.9981 50.571 89.8377 50.5715C89.6434 50.5639 89.4497 50.598 89.2693 50.6717C89.089 50.7454 88.9261 50.8569 88.7912 50.999C88.6554 51.1482 88.5497 51.3231 88.4805 51.5137C88.4113 51.7043 88.3799 51.9069 88.3879 52.1099V54.7967H87.3125V49.6563H88.1554L88.2972 50.5627H88.3523C88.509 50.2684 88.7348 50.0178 89.0097 49.833C89.2674 49.6568 89.5712 49.5628 89.8821 49.5629Z" fill="#4D4D4D"/>
<path d="M95.8527 52.205C95.8952 52.9187 95.6675 53.6219 95.2162 54.171C94.9881 54.4112 94.7117 54.5986 94.4057 54.7206C94.0997 54.8425 93.7714 54.896 93.4432 54.8775C93.0033 54.8864 92.5693 54.7739 92.1876 54.5522C91.822 54.3331 91.5298 54.0076 91.3488 53.618C91.1458 53.176 91.0455 52.6925 91.0557 52.205C91.0137 51.4963 91.24 50.798 91.6882 50.2528C91.918 50.0126 92.1961 49.8256 92.5036 49.7045C92.8111 49.5834 93.1408 49.531 93.4701 49.551C93.7942 49.5352 94.1179 49.5913 94.4185 49.7153C94.7192 49.8393 94.9895 50.0283 95.2109 50.2691C95.6597 50.8081 95.8892 51.5004 95.8527 52.205ZM92.1648 52.205C92.1648 53.3915 92.5969 53.9851 93.4613 53.9855C94.3167 53.9855 94.7444 53.392 94.7444 52.205C94.7444 51.0308 94.3138 50.4436 93.4526 50.4436C93.264 50.4275 93.0745 50.4609 92.9024 50.5407C92.7303 50.6205 92.5813 50.744 92.4699 50.8992C92.2435 51.2945 92.1374 51.7487 92.1648 52.205Z" fill="#4D4D4D"/>
<path d="M101.351 54.7938H100.27V51.6243C100.292 51.3143 100.215 51.0052 100.05 50.7433C99.9667 50.6427 99.8607 50.5638 99.7411 50.5133C99.6215 50.4628 99.4917 50.442 99.3625 50.4528C99.1886 50.4384 99.014 50.4682 98.8543 50.5397C98.6947 50.6111 98.5552 50.7219 98.4484 50.8619C98.2203 51.2792 98.119 51.7557 98.1574 52.2312V54.7918H97.082V49.6516H97.9248L98.0761 50.3253H98.1312C98.274 50.0783 98.487 49.8809 98.7422 49.7586C99.0172 49.6237 99.3192 49.5552 99.6247 49.5588C99.9327 49.52 100.245 49.5765 100.521 49.7208C100.797 49.8651 101.023 50.0905 101.171 50.3675H101.244C101.395 50.1125 101.614 49.9063 101.876 49.773C102.166 49.6263 102.487 49.5531 102.811 49.5595C103.051 49.5377 103.293 49.5678 103.521 49.648C103.748 49.7282 103.957 49.8566 104.132 50.0246C104.439 50.4287 104.586 50.9339 104.547 51.4423V54.7931H103.471V51.6237C103.494 51.3132 103.416 51.0038 103.249 50.7426C103.165 50.6422 103.059 50.5635 102.939 50.513C102.819 50.4625 102.689 50.4416 102.56 50.4521C102.386 50.4374 102.212 50.4659 102.052 50.5352C101.892 50.6045 101.751 50.7125 101.641 50.8497C101.42 51.2153 101.319 51.642 101.35 52.0696L101.351 54.7938Z" fill="#4D4D4D"/>
<path d="M111.149 54.783H109.729V49.1839H107.91V47.9844H112.968V49.1839H111.149V54.783Z" fill="#1A987C"/>
<path d="M117.148 54.7904L116.879 54.0839H116.843C116.652 54.3467 116.403 54.5608 116.116 54.7092C115.808 54.8364 115.476 54.8957 115.143 54.8831C114.931 54.895 114.719 54.8633 114.519 54.7898C114.32 54.7163 114.137 54.6026 113.982 54.4555C113.834 54.2921 113.72 54.0999 113.647 53.8906C113.574 53.6813 113.544 53.4591 113.558 53.2376C113.541 53.0016 113.585 52.7653 113.685 52.5516C113.785 52.3378 113.938 52.1539 114.128 52.0177C114.652 51.7168 115.247 51.5667 115.848 51.5833L116.737 51.5554V51.3276C116.751 51.2188 116.74 51.1081 116.705 51.0044C116.67 50.9007 116.611 50.8068 116.534 50.7301C116.456 50.6534 116.362 50.596 116.259 50.5625C116.156 50.5291 116.047 50.5204 115.94 50.5372C115.439 50.5602 114.947 50.6884 114.497 50.9136L114.035 49.959C114.641 49.6423 115.314 49.4812 115.995 49.4898C116.558 49.452 117.117 49.6129 117.576 49.9453C117.767 50.1177 117.915 50.3324 118.011 50.5726C118.106 50.8128 118.146 51.0721 118.126 51.3303V54.793L117.148 54.7904ZM116.735 52.3825L116.198 52.4009C115.881 52.3897 115.567 52.4668 115.29 52.6239C115.192 52.6928 115.112 52.7864 115.06 52.8956C115.008 53.0049 114.985 53.126 114.993 53.2471C114.993 53.6467 115.219 53.8466 115.671 53.8466C115.812 53.8536 115.954 53.8321 116.087 53.7834C116.22 53.7347 116.343 53.6598 116.448 53.5629C116.545 53.4653 116.621 53.3482 116.671 53.219C116.722 53.0898 116.744 52.9515 116.739 52.8128L116.735 52.3825Z" fill="#1A987C"/>
<path d="M120.956 54.7948H119.559V47.5625H120.956V54.7948Z" fill="#1A987C"/>
<path d="M125.278 49.4926C125.436 49.4896 125.593 49.5036 125.748 49.5342L125.643 50.8632C125.508 50.8297 125.37 50.8141 125.231 50.8169C124.852 50.7934 124.479 50.9181 124.188 51.1653C124.061 51.2913 123.962 51.4437 123.897 51.6121C123.833 51.7804 123.805 51.9609 123.815 52.1411V54.7856H122.418V49.5895H123.476L123.682 50.463H123.75C123.903 50.1777 124.124 49.9359 124.393 49.7593C124.656 49.5835 124.964 49.4906 125.278 49.4926Z" fill="#1A987C"/>
<path d="M131.335 52.1806C131.377 52.9039 131.14 53.6155 130.675 54.165C130.436 54.4097 130.149 54.6 129.832 54.7235C129.516 54.8469 129.177 54.9006 128.838 54.881C128.383 54.8905 127.934 54.7775 127.537 54.5537C127.161 54.3354 126.86 54.0075 126.671 53.6126C126.461 53.1659 126.357 52.6754 126.368 52.1806C126.325 51.4601 126.56 50.7508 127.024 50.2031C127.264 49.9602 127.553 49.7717 127.87 49.6499C128.187 49.5282 128.527 49.4759 128.865 49.4966C129.32 49.4871 129.769 49.5993 130.167 49.8219C130.541 50.0376 130.843 50.3633 131.032 50.7561C131.242 51.2002 131.346 51.6883 131.335 52.1806ZM127.793 52.1806C127.768 52.5855 127.854 52.9895 128.043 53.3473C128.131 53.4806 128.254 53.5875 128.396 53.657C128.539 53.7265 128.698 53.7562 128.856 53.7429C129.013 53.7567 129.17 53.7276 129.312 53.6585C129.454 53.5894 129.575 53.4828 129.662 53.3501C129.848 52.9907 129.933 52.5864 129.908 52.1813C129.934 51.779 129.849 51.3773 129.66 51.0221C129.562 50.9017 129.438 50.8049 129.298 50.7384C129.159 50.6719 129.006 50.6374 128.852 50.6374C128.698 50.6374 128.545 50.6719 128.405 50.7384C128.266 50.8049 128.142 50.9017 128.043 51.0221C127.855 51.3768 127.768 51.7783 127.794 52.1806H127.793Z" fill="#1A987C"/>
<path d="M135.301 54.884C135.03 54.8959 134.76 54.8418 134.514 54.7261C134.267 54.6105 134.052 54.4366 133.886 54.2191H133.812C133.861 54.6533 133.886 54.9033 133.886 54.9692V57.0743H132.488V49.5917H133.624L133.821 50.2654H133.888C134.041 50.0172 134.256 49.8148 134.511 49.6792C134.766 49.5436 135.053 49.4798 135.341 49.4942C135.617 49.4834 135.892 49.5428 136.14 49.667C136.388 49.7912 136.601 49.9762 136.761 50.2054C137.135 50.7925 137.314 51.4852 137.274 52.183C137.285 52.676 137.203 53.1665 137.033 53.6286C136.9 54.0013 136.662 54.3261 136.348 54.5628C136.042 54.7803 135.675 54.8928 135.301 54.884ZM134.889 50.6309C134.747 50.6186 134.604 50.6415 134.472 50.6979C134.34 50.7542 134.224 50.8421 134.133 50.9542C133.946 51.2762 133.86 51.648 133.886 52.0206V52.1741C133.853 52.5894 133.938 53.0056 134.131 53.3736C134.219 53.4963 134.337 53.594 134.473 53.6574C134.608 53.7208 134.758 53.7478 134.907 53.7357C135.535 53.7357 135.848 53.2128 135.848 52.1672C135.873 51.7697 135.793 51.3727 135.617 51.0168C135.542 50.891 135.435 50.7884 135.306 50.7203C135.178 50.6523 135.034 50.6213 134.889 50.6309Z" fill="#1A987C"/>
<defs>
<linearGradient id="paint0_linear_5436_69608" x1="59.9419" y1="15.2893" x2="86.3914" y2="21.5097" gradientUnits="userSpaceOnUse">
<stop stop-color="#89C739"/>
<stop offset="0.414" stop-color="#6DBE4D"/>
<stop offset="1" stop-color="#1A987C"/>
</linearGradient>
</defs>
</svg>
